<svg width="27" height="27" viewBox="0 0 27 27" fill="none" xmlns="http://www.w3.org/2000/svg">
    <g clip-path="url(#clip0_6305_547)">
        <g clip-path="url(#clip1_6305_547)">
            <g clip-path="url(#clip2_6305_547)">
                <path fill-rule="evenodd" clip-rule="evenodd"
                    d="M12.9998 6.35661C10.4477 4.06996 6.52286 4.15291 4.07031 6.60547C1.5319 9.14387 1.5319 13.2594 4.07031 15.7979L11.4678 23.1953C12.3139 24.0415 13.6858 24.0415 14.5319 23.1953L21.9294 15.7979C24.4678 13.2594 24.4678 9.14387 21.9294 6.60547C19.4768 4.15291 15.552 4.06996 12.9998 6.35661ZM11.7306 8.13753C10.0384 6.44526 7.29465 6.44526 5.60237 8.13753C3.9101 9.8298 3.9101 12.5735 5.60237 14.2658L12.9998 21.6633L20.3973 14.2658C22.0896 12.5735 22.0896 9.8298 20.3973 8.13753C18.705 6.44526 15.9613 6.44526 14.269 8.13753L13.7659 8.6407C13.3428 9.06377 12.6569 9.06377 12.2338 8.6407L11.7306 8.13753Z"
                    fill="currentColor" />
            </g>
        </g>
    </g>
    <defs>
        <clipPath id="clip0_6305_547">
            <rect width="26.304" height="26.3226" fill="white"
                transform="translate(0.0957031 0.54834)" />
        </clipPath>
        <clipPath id="clip1_6305_547">
            <rect width="26.304" height="26.3226" fill="white"
                transform="translate(0.0957031 0.54834)" />
        </clipPath>
        <clipPath id="clip2_6305_547">
            <rect width="26.304" height="26.3226" fill="white" transform="translate(0.0957031 1)" />
        </clipPath>
    </defs>
</svg>