<svg width="49" height="48" viewBox="0 0 49 48" fill="none" xmlns="http://www.w3.org/2000/svg">
<circle cx="24.5996" cy="24" r="24" fill="#002347"/>
<path fill-rule="evenodd" clip-rule="evenodd" d="M25.6537 9.70909C25.4398 9.6001 25.1598 9.6001 24.5997 9.6001C24.0397 9.6001 23.7596 9.6001 23.5457 9.70909C23.3576 9.80496 23.2046 9.95795 23.1087 10.1461C22.9997 10.36 22.9997 10.64 22.9997 11.2001V22.4001H11.7997C11.2397 22.4001 10.9596 22.4001 10.7457 22.5091C10.5576 22.605 10.4046 22.7579 10.3087 22.9461C10.1997 23.16 10.1997 23.44 10.1997 24.0001C10.1997 24.5601 10.1997 24.8402 10.3087 25.0541C10.4046 25.2422 10.5576 25.3952 10.7457 25.4911C10.9596 25.6001 11.2397 25.6001 11.7997 25.6001H22.9997V36.8001C22.9997 37.3601 22.9997 37.6402 23.1087 37.8541C23.2046 38.0422 23.3576 38.1952 23.5457 38.2911C23.7596 38.4001 24.0397 38.4001 24.5997 38.4001C25.1598 38.4001 25.4398 38.4001 25.6537 38.2911C25.8419 38.1952 25.9948 38.0422 26.0907 37.8541C26.1997 37.6402 26.1997 37.3601 26.1997 36.8001V25.6001H37.3997C37.9598 25.6001 38.2398 25.6001 38.4537 25.4911C38.6419 25.3952 38.7948 25.2422 38.8907 25.0541C38.9997 24.8402 38.9997 24.5601 38.9997 24.0001C38.9997 23.44 38.9997 23.16 38.8907 22.9461C38.7948 22.7579 38.6419 22.605 38.4537 22.5091C38.2398 22.4001 37.9598 22.4001 37.3997 22.4001H26.1997V11.2001C26.1997 10.64 26.1997 10.36 26.0907 10.1461C25.9948 9.95795 25.8419 9.80496 25.6537 9.70909Z" fill="white"/>
</svg>
