<svg width="27" height="27" viewBox="0 0 27 27" fill="none" xmlns="http://www.w3.org/2000/svg">
    <path fill-rule="evenodd" clip-rule="evenodd"
        d="M13.6479 4.93622C11.8911 4.93622 10.4669 6.36141 10.4669 8.11948C10.4669 9.87754 11.8911 11.3027 13.6479 11.3027C15.4047 11.3027 16.8289 9.87754 16.8289 8.11948C16.8289 6.36141 15.4047 4.93622 13.6479 4.93622ZM8.2749 8.11948C8.2749 5.14995 10.6805 2.74268 13.6479 2.74268C16.6153 2.74268 19.0209 5.14995 19.0209 8.11948C19.0209 11.089 16.6153 13.4963 13.6479 13.4963C10.6805 13.4963 8.2749 11.089 8.2749 8.11948Z"
        fill="currentColor" />
    <path fill-rule="evenodd" clip-rule="evenodd"
        d="M10.9275 17.4284C7.58749 17.4284 4.87999 20.1378 4.87999 23.4802V23.5802C4.87999 24.1859 4.38929 24.6769 3.78399 24.6769C3.17868 24.6769 2.68799 24.1859 2.68799 23.5802V23.4802C2.68799 18.9264 6.37689 15.2349 10.9275 15.2349H16.3684C20.9191 15.2349 24.608 18.9264 24.608 23.4802V23.5802C24.608 24.1859 24.1173 24.6769 23.512 24.6769C22.9067 24.6769 22.416 24.1859 22.416 23.5802V23.4802C22.416 20.1378 19.7085 17.4284 16.3684 17.4284H10.9275Z"
        fill="currentColor" />
</svg>