<svg width="18" height="18" viewBox="0 0 18 18" fill="none" xmlns="http://www.w3.org/2000/svg">
<path d="M8.9562 7.35622V10.8072H13.7482C13.3022 13.0002 11.4352 14.2602 8.9562 14.2602C6.06875 14.2205 3.74887 11.8685 3.74887 8.98072C3.74887 6.093 6.06875 3.74096 8.9562 3.70122C10.1564 3.69979 11.3197 4.1163 12.2462 4.87922L14.8462 2.27922C11.8638 -0.342708 7.50821 -0.679941 4.15776 1.45167C0.807315 3.58328 -0.732771 7.67144 0.378454 11.4838C1.48968 15.2962 4.98515 17.9167 8.9562 17.9142C13.4232 17.9142 17.4852 14.6652 17.4852 8.98022C17.4783 8.43286 17.4112 7.88792 17.2852 7.35522L8.9562 7.35622Z" fill="#2E3A59"/>
</svg>
