<svg width="29" height="25" viewBox="0 0 29 25" fill="none" xmlns="http://www.w3.org/2000/svg">
<path fill-rule="evenodd" clip-rule="evenodd" d="M1.9936 10.3461C9.77821 6.95448 14.9692 4.71851 17.5665 3.6382C24.9823 0.553693 26.5233 0.0178815 27.5276 0.000188645C27.7485 -0.0037027 28.2425 0.0510432 28.5624 0.310653C28.8326 0.529862 28.9069 0.825982 28.9425 1.03382C28.978 1.24165 29.0223 1.7151 28.9871 2.08504C28.5852 6.3075 26.8464 16.5543 25.9617 21.2835C25.5874 23.2846 24.8503 23.9556 24.1368 24.0212C22.5861 24.1639 21.4085 22.9964 19.9066 22.0119C17.5563 20.4712 16.2286 19.5122 13.9472 18.0088C11.3108 16.2714 13.0199 15.3165 14.5224 13.756C14.9156 13.3476 21.7481 7.13285 21.8804 6.56908C21.8969 6.49857 21.9123 6.23575 21.7561 6.09696C21.6 5.95818 21.3695 6.00564 21.2032 6.04339C20.9675 6.09689 17.213 8.57851 9.93955 13.4883C8.87383 14.2201 7.90854 14.5766 7.04366 14.5579C6.09021 14.5373 4.25615 14.0188 2.89272 13.5756C1.22041 13.032 -0.108711 12.7446 0.00702552 11.8214C0.0673081 11.3406 0.729499 10.8488 1.9936 10.3461Z" fill="white"/>
</svg>
